<svg width="20" height="19" viewBox="0 0 20 19" fill="none" xmlns="http://www.w3.org/2000/svg">
<path d="M3.29894 11.9735L4.38774 1.75391H17.253C18.1804 1.75391 18.8981 2.56636 18.7837 3.48665L17.6849 12.3272C17.5889 13.0995 16.9325 13.6794 16.1542 13.6794H4.83274C3.91619 13.6794 3.20183 12.8849 3.29894 11.9735Z" stroke="#1E242F" strokeWidth="0.925489"/>
<path d="M1 0.5C1.8067 0.583688 3.61371 0.951913 4.38814 1.75531" stroke="#1E242F" strokeWidth="0.925489" strokeLinecap="round"/>
<path d="M18.3672 6.15234L6.93221 6.15234" stroke="#1E242F" strokeWidth="0.925489"/>
<path d="M8.3134 16.8261C8.3134 17.5164 7.57502 18.1914 6.50431 18.1914C5.43359 18.1914 4.69522 17.5164 4.69522 16.8261C4.69522 16.1358 5.43359 15.4608 6.50431 15.4608C7.57502 15.4608 8.3134 16.1358 8.3134 16.8261Z" stroke="#1E242F" strokeWidth="0.616993"/>
<path d="M15.5107 16.8261C15.5107 17.5164 14.7723 18.1914 13.7016 18.1914C12.6309 18.1914 11.8925 17.5164 11.8925 16.8261C11.8925 16.1358 12.6309 15.4608 13.7016 15.4608C14.7723 15.4608 15.5107 16.1358 15.5107 16.8261Z" stroke="#1E242F" strokeWidth="0.616993"/>
</svg>
