<svg width="29" height="28" viewBox="0 0 29 28" fill="none" xmlns="http://www.w3.org/2000/svg">
<path d="M14.5007 25.6654C16.033 25.6673 17.5507 25.3664 18.9664 24.7799C20.3821 24.1935 21.668 23.3331 22.7502 22.2482C23.8351 21.166 24.6954 19.8801 25.2819 18.4644C25.8683 17.0487 26.1692 15.5311 26.1673 13.9987C26.1692 12.4663 25.8683 10.9487 25.2819 9.53299C24.6954 8.11728 23.8351 6.83139 22.7502 5.74921C21.668 4.6643 20.3821 3.80392 18.9664 3.21749C17.5507 2.63106 16.033 2.33015 14.5007 2.33204C12.9683 2.33015 11.4507 2.63106 10.0349 3.21749C8.61923 3.80392 7.33334 4.6643 6.25116 5.74921C5.16625 6.83139 4.30587 8.11728 3.71944 9.53299C3.13302 10.9487 2.8321 12.4663 2.83399 13.9987C2.8321 15.5311 3.13302 17.0487 3.71944 18.4644C4.30587 19.8801 5.16625 21.166 6.25116 22.2482C7.33334 23.3331 8.61923 24.1935 10.0349 24.7799C11.4507 25.3664 12.9683 25.6673 14.5007 25.6654Z" stroke="#1E1E1E" strokeWidth="3" strokeLinejoin="round"/>
<path d="M14.5 16.6966V14.3633C15.1922 14.3633 15.8689 14.158 16.4445 13.7734C17.0201 13.3888 17.4687 12.8422 17.7336 12.2027C17.9985 11.5631 18.0678 10.8594 17.9327 10.1805C17.7977 9.50153 17.4644 8.87789 16.9749 8.38841C16.4854 7.89893 15.8617 7.56558 15.1828 7.43053C14.5039 7.29549 13.8001 7.3648 13.1606 7.6297C12.5211 7.89461 11.9744 8.34321 11.5899 8.91879C11.2053 9.49436 11 10.171 11 10.8633" stroke="#1E1E1E" strokeWidth="3" strokeLinecap="round" strokeLinejoin="round"/>
<path fillRule="evenodd" clipRule="evenodd" d="M14.5013 21.9479C14.8881 21.9479 15.259 21.7943 15.5325 21.5208C15.806 21.2473 15.9596 20.8764 15.9596 20.4896C15.9596 20.1028 15.806 19.7319 15.5325 19.4584C15.259 19.1849 14.8881 19.0312 14.5013 19.0312C14.1145 19.0312 13.7436 19.1849 13.4701 19.4584C13.1966 19.7319 13.043 20.1028 13.043 20.4896C13.043 20.8764 13.1966 21.2473 13.4701 21.5208C13.7436 21.7943 14.1145 21.9479 14.5013 21.9479Z" fill="#1E1E1E"/>
</svg>
