<svg width="88" height="29" viewBox="0 0 88 29" fill="none" xmlns="http://www.w3.org/2000/svg">
<g clip-path="url(#clip0_1634_7579)">
<path d="M45.6074 9.41809C45.5582 13.303 49.0696 15.4708 51.7148 16.7598C54.4325 18.0822 55.3453 18.9303 55.3345 20.1131C55.3143 21.923 53.1667 22.7218 51.1571 22.7528C47.6511 22.8072 45.6125 21.8062 43.9918 21.0492L42.7288 26.9593C44.3548 27.7085 47.3657 28.362 50.4878 28.3906C57.8168 28.3906 62.6115 24.7729 62.6375 19.1638C62.6662 12.045 52.7909 11.651 52.8584 8.46913C52.8817 7.50431 53.8023 6.47472 55.8196 6.21294C56.8182 6.0807 59.5747 5.97949 62.6999 7.41862L63.9265 1.70055C62.2458 1.0886 60.0858 0.502625 57.3964 0.502625C50.4983 0.502625 45.6465 4.16961 45.6074 9.41809ZM75.7128 0.995153C74.3745 0.995153 73.2468 1.77578 72.7435 2.97371L62.2745 27.9706H69.598L71.0554 23.943H80.0046L80.85 27.9706H87.3048L81.6721 0.995153H75.7128ZM76.7373 8.28224L78.8508 18.4118H73.0626L76.7373 8.28224ZM36.728 0.995491L30.9553 27.9703H37.9341L43.7041 0.994816L36.728 0.995491ZM26.4041 0.995491L19.1403 19.3557L16.202 3.74422C15.8572 2.00147 14.4957 0.995153 12.9837 0.995153H1.10967L0.943359 1.77848C3.38105 2.30744 6.15068 3.1606 7.82866 4.07347C8.85555 4.63111 9.14837 5.11858 9.48572 6.44368L15.051 27.9706H22.4258L33.7324 0.995153L26.4041 0.995491Z" fill="url(#paint0_linear_1634_7579)"/>
</g>
<defs>
<linearGradient id="paint0_linear_1634_7579" x1="3971.32" y1="84.334" x2="4052.05" y2="-2779.8" gradientUnits="userSpaceOnUse">
<stop stop-color="#222357"/>
<stop offset="1" stop-color="#254AA5"/>
</linearGradient>
<clipPath id="clip0_1634_7579">
<rect width="86.3625" height="28" fill="white" transform="translate(0.943359 0.5)"/>
</clipPath>
</defs>
</svg>
