<svg width="63" height="49" viewBox="0 0 63 49" fill="none" xmlns="http://www.w3.org/2000/svg">
<g clip-path="url(#clip0_1634_7581)">
<path d="M11.5333 48.263V45.0861C11.5333 43.868 10.7918 43.074 9.52089 43.074C8.88555 43.074 8.19715 43.2858 7.72053 43.9742C7.35003 43.3916 6.82059 43.074 6.02629 43.074C5.49661 43.074 4.9674 43.2327 4.5436 43.8152V43.1799H3.43164V48.263H4.5436V45.4566C4.5436 44.5567 5.02022 44.1329 5.76169 44.1329C6.50268 44.1329 6.87365 44.6095 6.87365 45.4566V48.263H7.98561V45.4566C7.98561 44.5567 8.51482 44.1329 9.20322 44.1329C9.94469 44.1329 10.3152 44.6095 10.3152 45.4566V48.263H11.5333ZM28.0006 43.1799H26.2005V41.6444H25.0886V43.1799H24.0825V44.1857H25.0883V46.5157C25.0883 47.6808 25.5649 48.3689 26.8359 48.3689C27.3125 48.3689 27.8417 48.2102 28.2127 47.9984L27.8948 47.0452C27.5771 47.257 27.2066 47.31 26.9417 47.31C26.4123 47.31 26.2005 46.9924 26.2005 46.4627V44.1857H28.0006V43.1799ZM37.426 43.0737C36.7907 43.0737 36.3671 43.3916 36.1023 43.8152V43.1799H34.9903V48.263H36.1023V45.4038C36.1023 44.5567 36.4728 44.0801 37.1612 44.0801C37.3729 44.0801 37.6378 44.1331 37.8496 44.1859L38.1672 43.127C37.9555 43.074 37.6378 43.074 37.426 43.074M23.1823 43.6037C22.6526 43.2329 21.9114 43.0742 21.1171 43.0742C19.8464 43.0742 18.9993 43.7096 18.9993 44.7156C18.9993 45.563 19.6347 46.0394 20.7466 46.1983L21.2761 46.2514C21.8586 46.357 22.1762 46.516 22.1762 46.7808C22.1762 47.1513 21.7527 47.4162 21.0112 47.4162C20.2698 47.4162 19.6875 47.1513 19.3167 46.8867L18.7873 47.7338C19.3698 48.1574 20.1641 48.3692 20.9582 48.3692C22.4408 48.3692 23.2882 47.681 23.2882 46.7278C23.2882 45.8276 22.5998 45.351 21.5407 45.1923L21.0112 45.1392C20.5346 45.0861 20.1641 44.9805 20.1641 44.6628C20.1641 44.2921 20.5346 44.0803 21.1171 44.0803C21.7527 44.0803 22.388 44.3449 22.7057 44.5038L23.1823 43.6037ZM52.7288 43.0742C52.0933 43.0742 51.6697 43.3919 51.4049 43.8154V43.1801H50.2929V48.2633H51.4049V45.404C51.4049 44.5569 51.7756 44.0803 52.4638 44.0803C52.6758 44.0803 52.9406 44.1334 53.1524 44.1862L53.4701 43.1273C53.2583 43.0742 52.9406 43.0742 52.7288 43.0742ZM38.538 45.7217C38.538 47.2572 39.5969 48.3692 41.2385 48.3692C41.9797 48.3692 42.5092 48.2105 43.0386 47.7869L42.5092 46.8867C42.0856 47.2044 41.6621 47.3631 41.1855 47.3631C40.2853 47.3631 39.6499 46.7278 39.6499 45.7217C39.6499 44.7687 40.2853 44.1331 41.1855 44.0803C41.6621 44.0803 42.0856 44.239 42.5092 44.5569L43.0386 43.6567C42.5092 43.2329 41.9797 43.0742 41.2385 43.0742C39.5969 43.0742 38.538 44.1862 38.538 45.7217ZM48.8105 45.7217V43.1801H47.6985V43.8154C47.3278 43.3391 46.7983 43.0742 46.1099 43.0742C44.6803 43.0742 43.5683 44.1862 43.5683 45.7217C43.5683 47.2572 44.6803 48.3692 46.1099 48.3692C46.8511 48.3692 47.3808 48.1046 47.6985 47.628V48.2633H48.8105V45.7217ZM44.7331 45.7217C44.7331 44.8215 45.3156 44.0803 46.2686 44.0803C47.1688 44.0803 47.8044 44.7687 47.8044 45.7217C47.8044 46.6219 47.1688 47.3631 46.2686 47.3631C45.3156 47.31 44.7331 46.6219 44.7331 45.7217ZM31.4427 43.0742C29.96 43.0742 28.9008 44.1331 28.9008 45.7217C28.9008 47.3103 29.9597 48.3692 31.4955 48.3692C32.2367 48.3692 32.9782 48.1574 33.5607 47.681L33.031 46.8867C32.6074 47.2044 32.078 47.4162 31.5485 47.4162C30.8601 47.4162 30.1717 47.0985 30.0128 46.1981H33.7725V45.7748C33.8255 44.1331 32.8725 43.0742 31.4427 43.0742ZM31.4424 44.0272C32.1306 44.0272 32.6074 44.451 32.7131 45.2453H30.0656C30.1715 44.5569 30.6481 44.0272 31.4424 44.0272ZM59.0296 45.7217V41.168H57.9177V43.8154C57.5469 43.3391 57.0175 43.0742 56.3291 43.0742C54.8995 43.0742 53.7875 44.1862 53.7875 45.7217C53.7875 47.2572 54.8995 48.3692 56.3291 48.3692C57.0706 48.3692 57.6 48.1046 57.9177 47.628V48.2633H59.0296V45.7217ZM54.9525 45.7217C54.9525 44.8215 55.5348 44.0803 56.488 44.0803C57.3882 44.0803 58.0236 44.7687 58.0236 45.7217C58.0236 46.6219 57.3882 47.3631 56.488 47.3631C55.5348 47.31 54.9525 46.6219 54.9525 45.7217ZM17.781 45.7217V43.1801H16.669V43.8154C16.2983 43.3391 15.7688 43.0742 15.0804 43.0742C13.6508 43.0742 12.5389 44.1862 12.5389 45.7217C12.5389 47.2572 13.6508 48.3692 15.0804 48.3692C15.8219 48.3692 16.3514 48.1046 16.669 47.628V48.2633H17.781V45.7217ZM13.6508 45.7217C13.6508 44.8215 14.2333 44.0803 15.1863 44.0803C16.0865 44.0803 16.7221 44.7687 16.7221 45.7217C16.7221 46.6219 16.0865 47.3631 15.1863 47.3631C14.2333 47.31 13.6508 46.6219 13.6508 45.7217Z" fill="black"/>
<path d="M22.8105 4.57812H39.4899V34.5482H22.8105V4.57812Z" fill="#FF5F00"/>
<path d="M23.8698 19.5623C23.8698 13.473 26.7291 8.07194 31.1238 4.57711C27.8941 2.03552 23.817 0.5 19.3692 0.5C8.83158 0.5 0.306641 9.02494 0.306641 19.5623C0.306641 30.0996 8.83158 38.6245 19.3689 38.6245C23.8168 38.6245 27.8939 37.089 31.1238 34.5472C26.7291 31.1054 23.8698 25.6515 23.8698 19.5623Z" fill="#EB001B"/>
<path d="M61.9949 19.5623C61.9949 30.0994 53.47 38.6245 42.9327 38.6245C38.4848 38.6245 34.4077 37.089 31.1777 34.5472C35.6256 31.0526 38.432 25.6515 38.432 19.5623C38.432 13.473 35.5725 8.07194 31.1777 4.57711C34.4075 2.03552 38.4848 0.5 42.9327 0.5C53.47 0.5 61.9949 9.07801 61.9949 19.5623Z" fill="#F79E1B"/>
</g>
<defs>
<clipPath id="clip0_1634_7581">
<rect width="61.75" height="48" fill="white" transform="translate(0.306641 0.5)"/>
</clipPath>
</defs>
</svg>
