<svg width="44" height="39" viewBox="0 0 44 39" fill="none" xmlns="http://www.w3.org/2000/svg">
<path d="M9.59078 29.6593C8.8166 29.6593 8.17071 29.4358 7.6531 28.9887C7.13549 28.5417 6.87612 27.9834 6.875 27.3138V11.6853C6.875 11.0167 7.13437 10.4589 7.6531 10.0118C8.17183 9.56481 8.81716 9.34081 9.5891 9.33984H34.4109C35.184 9.33984 35.8293 9.56384 36.3469 10.0118C36.8645 10.4598 37.1239 11.0176 37.125 11.6853V27.3153C37.125 27.9829 36.8656 28.5408 36.3469 28.9887C35.8282 29.4367 35.1828 29.6603 34.4109 29.6593H9.59078ZM22 19.6679L8.55556 12.0757V27.3153C8.55556 27.5756 8.65247 27.7894 8.84629 27.9568C9.04012 28.1242 9.28828 28.2079 9.59078 28.2079H34.4109C34.7123 28.2079 34.9599 28.1242 35.1537 27.9568C35.3475 27.7894 35.4444 27.5751 35.4444 27.3138V12.0743L22 19.6679ZM22 18.0482L34.9268 10.7912H9.07317L22 18.0482ZM8.55556 12.0757V10.7912V27.3153C8.55556 27.5756 8.65247 27.7894 8.84629 27.9568C9.04012 28.1242 9.28828 28.2079 9.59078 28.2079H8.55556V12.0757Z" fill="#C7C7C7"/>
</svg>
