<svg width="28" height="28" viewBox="0 0 28 28" fill="none" xmlns="http://www.w3.org/2000/svg">
<rect x="0.5" y="0.5" width="27" height="27" stroke="white"/>
<path d="M19.8327 20.9987C20.4515 20.9987 21.045 21.2445 21.4826 21.6821C21.9202 22.1197 22.166 22.7132 22.166 23.332C22.166 23.9509 21.9202 24.5444 21.4826 24.9819C21.045 25.4195 20.4515 25.6654 19.8327 25.6654C19.2138 25.6654 18.6204 25.4195 18.1828 24.9819C17.7452 24.5444 17.4993 23.9509 17.4993 23.332C17.4993 22.037 18.5377 20.9987 19.8327 20.9987ZM1.16602 2.33203H4.98102L6.07768 4.66536H23.3327C23.6421 4.66536 23.9389 4.78828 24.1576 5.00707C24.3764 5.22587 24.4994 5.52261 24.4994 5.83203C24.4994 6.03036 24.441 6.2287 24.3594 6.41536L20.1827 13.9637C19.786 14.6754 19.016 15.1654 18.141 15.1654H9.44935L8.39935 17.067L8.36435 17.207C8.36435 17.2844 8.39508 17.3586 8.44978 17.4133C8.50447 17.468 8.57866 17.4987 8.65602 17.4987H22.166V19.832H8.16602C7.54718 19.832 6.95368 19.5862 6.5161 19.1486C6.07852 18.711 5.83268 18.1175 5.83268 17.4987C5.83268 17.0904 5.93768 16.7054 6.11268 16.3787L7.69935 13.5204L3.49935 4.66536H1.16602V2.33203ZM8.16602 20.9987C8.78485 20.9987 9.37835 21.2445 9.81593 21.6821C10.2535 22.1197 10.4993 22.7132 10.4993 23.332C10.4993 23.9509 10.2535 24.5444 9.81593 24.9819C9.37835 25.4195 8.78485 25.6654 8.16602 25.6654C7.54718 25.6654 6.95368 25.4195 6.5161 24.9819C6.07852 24.5444 5.83268 23.9509 5.83268 23.332C5.83268 22.037 6.87102 20.9987 8.16602 20.9987ZM18.666 12.832L21.9094 6.9987H7.16268L9.91602 12.832H18.666Z" fill="black"/>
</svg>
