<svg width="49" height="49" viewBox="0 0 49 49" fill="none" xmlns="http://www.w3.org/2000/svg">
<g clip-path="url(#clip0_1634_7567)">
<path d="M37.6934 0.5H12.1934C5.98016 0.5 0.943359 5.5368 0.943359 11.75V37.25C0.943359 43.4632 5.98016 48.5 12.1934 48.5H37.6934C43.9066 48.5 48.9434 43.4632 48.9434 37.25V11.75C48.9434 5.5368 43.9066 0.5 37.6934 0.5Z" fill="url(#paint0_radial_1634_7567)"/>
<path d="M37.6934 0.5H12.1934C5.98016 0.5 0.943359 5.5368 0.943359 11.75V37.25C0.943359 43.4632 5.98016 48.5 12.1934 48.5H37.6934C43.9066 48.5 48.9434 43.4632 48.9434 37.25V11.75C48.9434 5.5368 43.9066 0.5 37.6934 0.5Z" fill="url(#paint1_radial_1634_7567)"/>
<path d="M24.945 5.75C19.8529 5.75 19.2137 5.77231 17.2139 5.86325C15.2177 5.95475 13.8552 6.27069 12.663 6.73438C11.4297 7.21325 10.3836 7.85394 9.34148 8.89644C8.29842 9.93875 7.65773 10.9848 7.17736 12.2176C6.71236 13.4101 6.39605 14.7732 6.30623 16.7684C6.2168 18.7685 6.19336 19.4079 6.19336 24.5002C6.19336 29.5925 6.21586 30.2296 6.30661 32.2295C6.39848 34.2256 6.71442 35.5882 7.17773 36.7803C7.65698 38.0137 8.29767 39.0597 9.34017 40.1019C10.3821 41.1449 11.4282 41.7871 12.6606 42.266C13.8537 42.7297 15.2164 43.0456 17.2122 43.1371C19.2122 43.2281 19.8509 43.2504 24.9428 43.2504C30.0355 43.2504 30.6726 43.2281 32.6725 43.1371C34.6686 43.0456 36.0327 42.7297 37.2257 42.266C38.4585 41.7871 39.5031 41.1449 40.5449 40.1019C41.5879 39.0597 42.2284 38.0137 42.709 36.7809C43.1699 35.5882 43.4864 34.2253 43.5801 32.2299C43.6699 30.23 43.6934 29.5925 43.6934 24.5002C43.6934 19.4079 43.6699 18.7689 43.5801 16.7688C43.4864 14.7727 43.1699 13.4103 42.709 12.2182C42.2284 10.9848 41.5879 9.93875 40.5449 8.89644C39.502 7.85356 38.4589 7.21287 37.2246 6.73456C36.0293 6.27069 34.666 5.95456 32.6699 5.86325C30.6698 5.77231 30.033 5.75 24.9392 5.75H24.945ZM23.263 9.12894C23.7623 9.12819 24.3194 9.12894 24.945 9.12894C29.9515 9.12894 30.5447 9.14694 32.5217 9.23675C34.3499 9.32038 35.3421 9.62581 36.003 9.8825C36.8781 10.2222 37.5019 10.6286 38.1578 11.285C38.814 11.9412 39.2202 12.5662 39.5609 13.4412C39.8175 14.1012 40.1234 15.0935 40.2066 16.9216C40.2964 18.8983 40.3159 19.4919 40.3159 24.4959C40.3159 29.4999 40.2964 30.0937 40.2066 32.0701C40.123 33.8982 39.8175 34.8905 39.5609 35.5507C39.2211 36.4257 38.814 37.0488 38.1578 37.7047C37.5015 38.3609 36.8785 38.7671 36.003 39.107C35.3429 39.3648 34.3499 39.6695 32.5217 39.7531C30.5451 39.8429 29.9515 39.8624 24.945 39.8624C19.9384 39.8624 19.345 39.8429 17.3685 39.7531C15.5404 39.6688 14.5482 39.3633 13.8867 39.1066C13.0118 38.7667 12.3867 38.3606 11.7304 37.7043C11.0742 37.0481 10.668 36.4246 10.3274 35.5492C10.0707 34.889 9.76486 33.8967 9.68161 32.0686C9.5918 30.092 9.5738 29.4984 9.5738 24.4912C9.5738 19.484 9.5918 18.8936 9.68161 16.9169C9.76523 15.0888 10.0707 14.0966 10.3274 13.4356C10.6673 12.5606 11.0742 11.9356 11.7306 11.2794C12.387 10.6231 13.0118 10.2168 13.8869 9.87631C14.5478 9.6185 15.5404 9.31381 17.3685 9.22981C19.0982 9.15162 19.7685 9.12819 23.263 9.12425V9.12894ZM34.9538 12.2422C33.7116 12.2422 32.7038 13.2491 32.7038 14.4914C32.7038 15.7336 33.7116 16.7414 34.9538 16.7414C36.196 16.7414 37.2038 15.7336 37.2038 14.4914C37.2038 13.2493 36.196 12.2414 34.9538 12.2414V12.2422ZM24.945 14.8711C19.6275 14.8711 15.3162 19.1825 15.3162 24.5002C15.3162 29.8179 19.6275 34.1272 24.945 34.1272C30.2627 34.1272 34.5726 29.8179 34.5726 24.5002C34.5726 19.1827 30.2624 14.8711 24.9447 14.8711H24.945ZM24.945 18.2501C28.3967 18.2501 31.1952 21.0481 31.1952 24.5002C31.1952 27.9519 28.3967 30.7503 24.945 30.7503C21.4934 30.7503 18.6951 27.9519 18.6951 24.5002C18.6951 21.0481 21.4932 18.2501 24.945 18.2501Z" fill="white"/>
</g>
<defs>
<radialGradient id="paint0_radial_1634_7567" cx="0" cy="0" r="1" gradientUnits="userSpaceOnUse" gradientTransform="translate(13.6934 52.1969) rotate(-90) scale(47.5716 44.2453)">
<stop stop-color="#FFDD55"/>
<stop offset="0.1" stop-color="#FFDD55"/>
<stop offset="0.5" stop-color="#FF543E"/>
<stop offset="1" stop-color="#C837AB"/>
</radialGradient>
<radialGradient id="paint1_radial_1634_7567" cx="0" cy="0" r="1" gradientUnits="userSpaceOnUse" gradientTransform="translate(-7.09683 3.95769) rotate(78.681) scale(21.2648 87.654)">
<stop stop-color="#3771C8"/>
<stop offset="0.128" stop-color="#3771C8"/>
<stop offset="1" stop-color="#6600FF" stop-opacity="0"/>
</radialGradient>
<clipPath id="clip0_1634_7567">
<rect width="48" height="48" fill="white" transform="translate(0.943359 0.5)"/>
</clipPath>
</defs>
</svg>
