<svg width="49" height="49" viewBox="0 0 49 49" fill="none" xmlns="http://www.w3.org/2000/svg">
<g clip-path="url(#clip0_1634_7572)">
<path d="M37.6934 0.5H12.1934C5.98016 0.5 0.943359 5.5368 0.943359 11.75V37.25C0.943359 43.4632 5.98016 48.5 12.1934 48.5H37.6934C43.9066 48.5 48.9434 43.4632 48.9434 37.25V11.75C48.9434 5.5368 43.9066 0.5 37.6934 0.5Z" fill="white"/>
<path d="M37.6934 0.5H12.1934C5.98016 0.5 0.943359 5.5368 0.943359 11.75V37.25C0.943359 43.4632 5.98016 48.5 12.1934 48.5H37.6934C43.9066 48.5 48.9434 43.4632 48.9434 37.25V11.75C48.9434 5.5368 43.9066 0.5 37.6934 0.5Z" fill="#0A66C2"/>
<path d="M35.5774 41.3159H41.0655C41.2644 41.3159 41.4552 41.2369 41.5958 41.0963C41.7365 40.9557 41.8155 40.765 41.8155 40.5661L41.8184 28.9707C41.8184 22.9102 40.5124 18.2518 33.43 18.2518C30.7377 18.1516 28.1987 19.5395 26.8287 21.857C26.822 21.8683 26.8118 21.877 26.7996 21.8819C26.7875 21.8869 26.7741 21.8877 26.7614 21.8842C26.7488 21.8808 26.7376 21.8734 26.7296 21.863C26.7216 21.8526 26.7172 21.8399 26.7171 21.8268V19.5613C26.7171 19.3623 26.6381 19.1716 26.4974 19.0309C26.3568 18.8903 26.166 18.8113 25.9671 18.8113H20.7589C20.56 18.8113 20.3692 18.8903 20.2286 19.0309C20.0879 19.1716 20.0089 19.3623 20.0089 19.5613V40.565C20.0089 40.7639 20.0879 40.9547 20.2286 41.0953C20.3692 41.236 20.56 41.315 20.7589 41.315H26.2467C26.4456 41.315 26.6364 41.236 26.777 41.0953C26.9177 40.9547 26.9967 40.7639 26.9967 40.565V30.1826C26.9967 27.2469 27.5535 24.4038 31.1931 24.4038C34.7809 24.4038 34.8274 27.7631 34.8274 30.3727V40.5659C34.8274 40.7649 34.9064 40.9556 35.0471 41.0963C35.1877 41.2369 35.3785 41.3159 35.5774 41.3159ZM8.06836 11.6802C8.06836 13.9047 9.89967 15.7351 12.1244 15.7351C14.3485 15.7349 16.1787 13.9034 16.1787 11.6793C16.1783 9.45519 14.3479 7.625 12.1236 7.625C9.89873 7.625 8.06836 9.45575 8.06836 11.6802ZM9.37317 41.3159H14.8682C15.0671 41.3159 15.2579 41.2369 15.3986 41.0963C15.5392 40.9556 15.6182 40.7649 15.6182 40.5659V19.5613C15.6182 19.3623 15.5392 19.1716 15.3986 19.0309C15.2579 18.8903 15.0671 18.8113 14.8682 18.8113H9.37317C9.17426 18.8113 8.98349 18.8903 8.84284 19.0309C8.70219 19.1716 8.62317 19.3623 8.62317 19.5613V40.5659C8.62317 40.7649 8.70219 40.9556 8.84284 41.0963C8.98349 41.2369 9.17426 41.3159 9.37317 41.3159Z" fill="white"/>
</g>
<defs>
<clipPath id="clip0_1634_7572">
<rect width="48" height="48" fill="white" transform="translate(0.943359 0.5)"/>
</clipPath>
</defs>
</svg>
