<svg width="18" height="17" viewBox="0 0 18 17" fill="none" xmlns="http://www.w3.org/2000/svg">
<path d="M8.04894 1.42705C8.3483 0.505738 9.6517 0.50574 9.95106 1.42705L11.2451 5.40983C11.379 5.82185 11.763 6.10081 12.1962 6.10081H16.3839C17.3527 6.10081 17.7554 7.34043 16.9717 7.90983L13.5838 10.3713C13.2333 10.626 13.0866 11.0773 13.2205 11.4894L14.5146 15.4721C14.8139 16.3934 13.7595 17.1596 12.9757 16.5902L9.58778 14.1287C9.2373 13.874 8.7627 13.874 8.41221 14.1287L5.02426 16.5902C4.24054 17.1596 3.18607 16.3934 3.48542 15.4721L4.7795 11.4894C4.91338 11.0773 4.76672 10.626 4.41623 10.3713L1.02827 7.90983C0.244561 7.34043 0.647338 6.10081 1.61606 6.10081H5.8038C6.23703 6.10081 6.62099 5.82185 6.75486 5.40983L8.04894 1.42705Z" fill="#FFAB08"/>
</svg>
